<svg width="445" height="56" viewBox="0 0 445 56" fill="none" xmlns="http://www.w3.org/2000/svg">
<rect x="16" y="7" width="42" height="42" rx="21" fill="white"/>
<circle cx="37" cy="28" r="20" fill="#1FD7C1" stroke="white" stroke-width="2"/>
<path d="M29.133 32V23.2727H34.4V24.2102H30.1898V27.1591H34.1273V28.0966H30.1898V31.0625H34.4682V32H29.133ZM36.3049 23.2727H37.5662L40.5321 30.517H40.6344L43.6003 23.2727H44.8617V32H43.873V25.3693H43.7878L41.0605 32H40.106L37.3787 25.3693H37.2935V32H36.3049V23.2727Z" fill="white"/>
<path d="M83.4072 35.5H75.8555V21.9365H83.4072V23.3281H77.4326V27.7163H83.064V29.0894H77.4326V34.1084H83.4072V35.5ZM97.2212 25.1465C98.3407 25.1465 99.1849 25.4403 99.7539 26.0278C100.323 26.6092 100.607 27.5462 100.607 28.8389V35.5H99.0859V28.9131C99.0859 28.0905 98.9066 27.4751 98.5479 27.0669C98.1953 26.6525 97.6696 26.4453 96.9707 26.4453C95.9873 26.4453 95.2729 26.7298 94.8276 27.2988C94.3823 27.8678 94.1597 28.7059 94.1597 29.813V35.5H92.6289V28.9131C92.6289 28.3626 92.5485 27.9049 92.3877 27.54C92.2331 27.1751 91.998 26.903 91.6826 26.7236C91.3734 26.5381 90.9806 26.4453 90.5044 26.4453C89.8302 26.4453 89.2891 26.5845 88.8809 26.8628C88.4727 27.1411 88.1758 27.5555 87.9902 28.106C87.8109 28.6502 87.7212 29.3213 87.7212 30.1191V35.5H86.1812V25.332H87.4243L87.6562 26.77H87.7397C87.9438 26.4175 88.2005 26.1206 88.5098 25.8794C88.819 25.6382 89.1654 25.4557 89.5488 25.332C89.9323 25.2083 90.3405 25.1465 90.7734 25.1465C91.5465 25.1465 92.1929 25.2918 92.7124 25.5825C93.2381 25.867 93.6185 26.3031 93.8535 26.8906H93.937C94.271 26.3031 94.7287 25.867 95.3101 25.5825C95.8914 25.2918 96.5285 25.1465 97.2212 25.1465ZM114.811 25.1465C115.931 25.1465 116.775 25.4403 117.344 26.0278C117.913 26.6092 118.197 27.5462 118.197 28.8389V35.5H116.676V28.9131C116.676 28.0905 116.496 27.4751 116.138 27.0669C115.785 26.6525 115.259 26.4453 114.561 26.4453C113.577 26.4453 112.863 26.7298 112.417 27.2988C111.972 27.8678 111.75 28.7059 111.75 29.813V35.5H110.219V28.9131C110.219 28.3626 110.138 27.9049 109.978 27.54C109.823 27.1751 109.588 26.903 109.272 26.7236C108.963 26.5381 108.57 26.4453 108.094 26.4453C107.42 26.4453 106.879 26.5845 106.471 26.8628C106.062 27.1411 105.766 27.5555 105.58 28.106C105.401 28.6502 105.311 29.3213 105.311 30.1191V35.5H103.771V25.332H105.014L105.246 26.77H105.33C105.534 26.4175 105.79 26.1206 106.1 25.8794C106.409 25.6382 106.755 25.4557 107.139 25.332C107.522 25.2083 107.93 25.1465 108.363 25.1465C109.136 25.1465 109.783 25.2918 110.302 25.5825C110.828 25.867 111.208 26.3031 111.443 26.8906H111.527C111.861 26.3031 112.319 25.867 112.9 25.5825C113.481 25.2918 114.118 25.1465 114.811 25.1465ZM125.165 25.165C126.377 25.165 127.277 25.4372 127.864 25.9814C128.452 26.5257 128.746 27.3947 128.746 28.5884V35.5H127.623L127.326 33.9971H127.252C126.967 34.3682 126.671 34.6805 126.361 34.9341C126.052 35.1815 125.693 35.3701 125.285 35.5C124.883 35.6237 124.388 35.6855 123.801 35.6855C123.182 35.6855 122.632 35.5773 122.149 35.3608C121.673 35.1444 121.296 34.8166 121.018 34.3774C120.745 33.9383 120.609 33.3817 120.609 32.7075C120.609 31.6932 121.011 30.9139 121.815 30.3696C122.619 29.8254 123.844 29.5285 125.489 29.479L127.243 29.4048V28.7832C127.243 27.9049 127.054 27.2896 126.677 26.937C126.299 26.5845 125.768 26.4082 125.081 26.4082C124.549 26.4082 124.042 26.4855 123.56 26.6401C123.077 26.7948 122.619 26.9772 122.187 27.1875L121.713 26.0186C122.171 25.7835 122.697 25.5825 123.291 25.4155C123.884 25.2485 124.509 25.165 125.165 25.165ZM127.224 30.4902L125.675 30.5552C124.407 30.6047 123.513 30.8118 122.994 31.1768C122.474 31.5417 122.214 32.0581 122.214 32.7261C122.214 33.3075 122.391 33.7373 122.743 34.0156C123.096 34.2939 123.563 34.4331 124.144 34.4331C125.047 34.4331 125.786 34.1826 126.361 33.6816C126.937 33.1807 127.224 32.4292 127.224 31.4272V30.4902ZM136.733 25.1465C137.939 25.1465 138.852 25.4434 139.47 26.0371C140.089 26.6247 140.398 27.571 140.398 28.876V35.5H138.876V28.978C138.876 28.1307 138.682 27.4967 138.292 27.0762C137.909 26.6556 137.318 26.4453 136.52 26.4453C135.394 26.4453 134.603 26.7638 134.145 27.4009C133.687 28.0379 133.458 28.9626 133.458 30.1748V35.5H131.918V25.332H133.162L133.394 26.7979H133.477C133.694 26.4391 133.969 26.1392 134.303 25.8979C134.637 25.6506 135.011 25.465 135.425 25.3413C135.84 25.2114 136.276 25.1465 136.733 25.1465ZM151.967 25.332V35.5H150.705L150.482 34.0713H150.399C150.189 34.4238 149.917 34.7207 149.583 34.9619C149.249 35.2031 148.871 35.3825 148.451 35.5C148.036 35.6237 147.594 35.6855 147.124 35.6855C146.32 35.6855 145.646 35.5557 145.102 35.2959C144.557 35.0361 144.146 34.6341 143.868 34.0898C143.596 33.5456 143.459 32.8467 143.459 31.9932V25.332H145.018V31.8818C145.018 32.7292 145.21 33.3631 145.593 33.7837C145.977 34.1981 146.561 34.4053 147.347 34.4053C148.101 34.4053 148.701 34.263 149.146 33.9785C149.598 33.694 149.923 33.2765 150.121 32.7261C150.319 32.1694 150.417 31.4891 150.417 30.6851V25.332H151.967ZM159.138 25.1465C160.004 25.1465 160.746 25.3382 161.365 25.7217C161.983 26.1051 162.456 26.6432 162.784 27.3359C163.112 28.0225 163.276 28.8265 163.276 29.748V30.7036H156.253C156.271 31.8973 156.568 32.8065 157.144 33.4312C157.719 34.0558 158.529 34.3682 159.574 34.3682C160.217 34.3682 160.786 34.3094 161.281 34.1919C161.776 34.0744 162.289 33.9012 162.821 33.6724V35.0269C162.308 35.2557 161.798 35.4227 161.291 35.5278C160.79 35.633 160.196 35.6855 159.509 35.6855C158.532 35.6855 157.679 35.4876 156.949 35.0918C156.225 34.6898 155.662 34.1022 155.26 33.3291C154.858 32.556 154.657 31.6097 154.657 30.4902C154.657 29.3955 154.84 28.4492 155.205 27.6514C155.576 26.8473 156.095 26.2288 156.763 25.7959C157.437 25.363 158.229 25.1465 159.138 25.1465ZM159.12 26.4082C158.297 26.4082 157.641 26.6772 157.153 27.2153C156.664 27.7534 156.374 28.5049 156.281 29.4697H161.662C161.655 28.8636 161.56 28.3317 161.374 27.874C161.195 27.4102 160.919 27.0514 160.548 26.7979C160.177 26.5381 159.701 26.4082 159.12 26.4082ZM167.441 35.5H165.892V21.0645H167.441V35.5ZM181.831 35.5L177.275 23.4951H177.201C177.226 23.7487 177.248 24.0579 177.266 24.4229C177.285 24.7878 177.3 25.1867 177.312 25.6196C177.325 26.0464 177.331 26.4824 177.331 26.9277V35.5H175.865V21.9365H178.203L182.499 33.2178H182.563L186.924 21.9365H189.243V35.5H187.685V26.8164C187.685 26.4144 187.691 26.0124 187.703 25.6104C187.715 25.2021 187.731 24.8187 187.75 24.46C187.768 24.0951 187.787 23.7796 187.805 23.5137H187.731L183.12 35.5H181.831ZM196.526 25.165C197.738 25.165 198.638 25.4372 199.226 25.9814C199.813 26.5257 200.107 27.3947 200.107 28.5884V35.5H198.984L198.688 33.9971H198.613C198.329 34.3682 198.032 34.6805 197.723 34.9341C197.413 35.1815 197.055 35.3701 196.646 35.5C196.244 35.6237 195.75 35.6855 195.162 35.6855C194.544 35.6855 193.993 35.5773 193.511 35.3608C193.035 35.1444 192.657 34.8166 192.379 34.3774C192.107 33.9383 191.971 33.3817 191.971 32.7075C191.971 31.6932 192.373 30.9139 193.177 30.3696C193.981 29.8254 195.205 29.5285 196.851 29.479L198.604 29.4048V28.7832C198.604 27.9049 198.415 27.2896 198.038 26.937C197.661 26.5845 197.129 26.4082 196.442 26.4082C195.91 26.4082 195.403 26.4855 194.921 26.6401C194.438 26.7948 193.981 26.9772 193.548 27.1875L193.075 26.0186C193.532 25.7835 194.058 25.5825 194.652 25.4155C195.246 25.2485 195.87 25.165 196.526 25.165ZM198.585 30.4902L197.036 30.5552C195.768 30.6047 194.875 30.8118 194.355 31.1768C193.835 31.5417 193.576 32.0581 193.576 32.7261C193.576 33.3075 193.752 33.7373 194.104 34.0156C194.457 34.2939 194.924 34.4331 195.505 34.4331C196.408 34.4331 197.147 34.1826 197.723 33.6816C198.298 33.1807 198.585 32.4292 198.585 31.4272V30.4902ZM211.676 25.332V35.5H210.414L210.191 34.0713H210.108C209.898 34.4238 209.625 34.7207 209.292 34.9619C208.958 35.2031 208.58 35.3825 208.16 35.5C207.745 35.6237 207.303 35.6855 206.833 35.6855C206.029 35.6855 205.355 35.5557 204.811 35.2959C204.266 35.0361 203.855 34.6341 203.577 34.0898C203.305 33.5456 203.168 32.8467 203.168 31.9932V25.332H204.727V31.8818C204.727 32.7292 204.919 33.3631 205.302 33.7837C205.686 34.1981 206.27 34.4053 207.056 34.4053C207.81 34.4053 208.41 34.263 208.855 33.9785C209.307 33.694 209.632 33.2765 209.83 32.7261C210.028 32.1694 210.126 31.4891 210.126 30.6851V25.332H211.676ZM218.847 25.1465C219.713 25.1465 220.455 25.3382 221.074 25.7217C221.692 26.1051 222.165 26.6432 222.493 27.3359C222.821 28.0225 222.985 28.8265 222.985 29.748V30.7036H215.962C215.98 31.8973 216.277 32.8065 216.853 33.4312C217.428 34.0558 218.238 34.3682 219.283 34.3682C219.926 34.3682 220.495 34.3094 220.99 34.1919C221.485 34.0744 221.998 33.9012 222.53 33.6724V35.0269C222.017 35.2557 221.507 35.4227 221 35.5278C220.499 35.633 219.905 35.6855 219.218 35.6855C218.241 35.6855 217.388 35.4876 216.658 35.0918C215.934 34.6898 215.371 34.1022 214.969 33.3291C214.567 32.556 214.366 31.6097 214.366 30.4902C214.366 29.3955 214.549 28.4492 214.914 27.6514C215.285 26.8473 215.804 26.2288 216.472 25.7959C217.146 25.363 217.938 25.1465 218.847 25.1465ZM218.829 26.4082C218.006 26.4082 217.35 26.6772 216.862 27.2153C216.373 27.7534 216.083 28.5049 215.99 29.4697H221.371C221.364 28.8636 221.269 28.3317 221.083 27.874C220.904 27.4102 220.628 27.0514 220.257 26.7979C219.886 26.5381 219.41 26.4082 218.829 26.4082ZM230.221 25.1465C230.425 25.1465 230.639 25.1589 230.861 25.1836C231.084 25.2021 231.282 25.23 231.455 25.2671L231.26 26.6958C231.093 26.6525 230.908 26.6185 230.704 26.5938C230.5 26.569 230.308 26.5566 230.128 26.5566C229.72 26.5566 229.334 26.6401 228.969 26.8071C228.61 26.9679 228.295 27.203 228.022 27.5122C227.75 27.8153 227.537 28.1833 227.382 28.6162C227.228 29.043 227.15 29.5192 227.15 30.0449V35.5H225.601V25.332H226.881L227.048 27.2061H227.113C227.324 26.8288 227.577 26.4855 227.874 26.1763C228.171 25.8608 228.514 25.6104 228.904 25.4248C229.3 25.2393 229.739 25.1465 230.221 25.1465Z" fill="black"/>
</svg>
