<svg width="89" height="16" viewBox="0 0 89 16" fill="none" xmlns="http://www.w3.org/2000/svg">
<path d="M5.25 15H0.761364V0.454545H5.44886C6.85985 0.454545 8.06723 0.745738 9.07102 1.32812C10.0748 1.90578 10.8442 2.73674 11.3793 3.82102C11.9143 4.90057 12.1818 6.19318 12.1818 7.69886C12.1818 9.21401 11.9119 10.5185 11.3722 11.6122C10.8324 12.7012 10.0464 13.5393 9.0142 14.1264C7.98201 14.7088 6.72727 15 5.25 15ZM2.52273 13.4375H5.13636C6.33902 13.4375 7.3357 13.2055 8.12642 12.7415C8.91714 12.2775 9.50663 11.617 9.89489 10.7599C10.2831 9.90294 10.4773 8.88258 10.4773 7.69886C10.4773 6.52462 10.2855 5.51373 9.90199 4.66619C9.51847 3.81392 8.94555 3.16051 8.18324 2.70597C7.42093 2.24669 6.47159 2.01705 5.33523 2.01705H2.52273V13.4375ZM21.7841 10.5398V4.09091H23.4602V15H21.7841V13.1534H21.6705C21.4148 13.7074 21.017 14.1785 20.4773 14.5668C19.9375 14.9503 19.2557 15.142 18.4318 15.142C17.75 15.142 17.1439 14.9929 16.6136 14.6946C16.0833 14.3916 15.6667 13.937 15.3636 13.331C15.0606 12.7202 14.9091 11.9508 14.9091 11.0227V4.09091H16.5852V10.9091C16.5852 11.7045 16.8078 12.339 17.2528 12.8125C17.7027 13.286 18.2756 13.5227 18.9716 13.5227C19.3883 13.5227 19.812 13.4162 20.2429 13.2031C20.6785 12.9901 21.0431 12.6634 21.3366 12.223C21.6349 11.7827 21.7841 11.2216 21.7841 10.5398ZM31.104 15.2273C30.0529 15.2273 29.1462 14.9953 28.3839 14.5312C27.6263 14.0625 27.0415 13.4091 26.6296 12.571C26.2224 11.7282 26.0188 10.7481 26.0188 9.63068C26.0188 8.51326 26.2224 7.52841 26.6296 6.67614C27.0415 5.81913 27.6145 5.15152 28.3484 4.6733C29.087 4.19034 29.9487 3.94886 30.9336 3.94886C31.5018 3.94886 32.0629 4.04356 32.6168 4.23295C33.1708 4.42235 33.6751 4.73011 34.1296 5.15625C34.5842 5.57765 34.9464 6.13636 35.2163 6.83239C35.4862 7.52841 35.6211 8.38542 35.6211 9.40341V10.1136H27.212V8.66477H33.9165C33.9165 8.04924 33.7934 7.5 33.5472 7.01705C33.3058 6.53409 32.9601 6.15294 32.5103 5.87358C32.0652 5.59422 31.5397 5.45455 30.9336 5.45455C30.266 5.45455 29.6883 5.62026 29.2006 5.9517C28.7177 6.27841 28.346 6.70455 28.0856 7.23011C27.8252 7.75568 27.695 8.31913 27.695 8.92045V9.88636C27.695 10.7102 27.837 11.4086 28.1211 11.9815C28.4099 12.5497 28.81 12.983 29.3214 13.2812C29.8327 13.5748 30.427 13.7216 31.104 13.7216C31.5444 13.7216 31.9421 13.66 32.2972 13.5369C32.6571 13.4091 32.9672 13.2197 33.2276 12.9688C33.488 12.7131 33.6893 12.3958 33.8313 12.017L35.4506 12.4716C35.2802 13.0208 34.9937 13.5038 34.5913 13.9205C34.1888 14.3324 33.6916 14.6544 33.0998 14.8864C32.5079 15.1136 31.8427 15.2273 31.104 15.2273ZM47.9151 15.2273C47.006 15.2273 46.2035 14.9976 45.5075 14.5384C44.8114 14.0743 44.2669 13.4209 43.8739 12.5781C43.4809 11.7306 43.2844 10.7292 43.2844 9.57386C43.2844 8.42803 43.4809 7.43371 43.8739 6.59091C44.2669 5.74811 44.8138 5.09706 45.5146 4.63778C46.2153 4.1785 47.025 3.94886 47.9435 3.94886C48.6538 3.94886 49.2148 4.06723 49.6268 4.30398C50.0434 4.53598 50.3607 4.80114 50.5785 5.09943C50.801 5.39299 50.9738 5.63447 51.0969 5.82386H51.239V0.454545H52.9151V15H51.2958V13.3239H51.0969C50.9738 13.5227 50.7987 13.7737 50.5714 14.0767C50.3441 14.375 50.0198 14.6425 49.5984 14.8793C49.177 15.1113 48.6159 15.2273 47.9151 15.2273ZM48.1424 13.7216C48.8147 13.7216 49.3829 13.5464 49.8469 13.196C50.311 12.8409 50.6637 12.3509 50.9052 11.7259C51.1467 11.0961 51.2674 10.3693 51.2674 9.54545C51.2674 8.73106 51.149 8.01847 50.9123 7.40767C50.6755 6.79214 50.3252 6.31392 49.8612 5.97301C49.3971 5.62737 48.8242 5.45455 48.1424 5.45455C47.4322 5.45455 46.8403 5.63684 46.3668 6.00142C45.8981 6.36127 45.5453 6.85133 45.3086 7.47159C45.0766 8.08712 44.9606 8.77841 44.9606 9.54545C44.9606 10.322 45.079 11.0275 45.3157 11.6619C45.5572 12.2917 45.9123 12.7936 46.381 13.1676C46.8545 13.5369 47.4416 13.7216 48.1424 13.7216ZM59.4279 15.2557C58.7366 15.2557 58.1093 15.1255 57.5458 14.8651C56.9824 14.5999 56.5349 14.2188 56.2035 13.7216C55.872 13.2197 55.7063 12.6136 55.7063 11.9034C55.7063 11.2784 55.8294 10.7718 56.0756 10.3835C56.3219 9.99053 56.6509 9.68276 57.0629 9.46023C57.4748 9.23769 57.9293 9.07197 58.4265 8.96307C58.9284 8.84943 59.4326 8.75947 59.9393 8.69318C60.6022 8.60795 61.1396 8.54403 61.5515 8.50142C61.9682 8.45407 62.2712 8.37595 62.4606 8.26705C62.6547 8.15814 62.7518 7.96875 62.7518 7.69886V7.64205C62.7518 6.94129 62.56 6.39678 62.1765 6.00852C61.7977 5.62027 61.2224 5.42614 60.4506 5.42614C59.6504 5.42614 59.0231 5.60133 58.5685 5.9517C58.114 6.30208 57.7944 6.67614 57.6097 7.07386L56.0188 6.50568C56.3029 5.8428 56.6817 5.3267 57.1552 4.95739C57.6334 4.58333 58.1542 4.32292 58.7177 4.17614C59.2859 4.02462 59.8446 3.94886 60.3938 3.94886C60.7442 3.94886 61.1467 3.99148 61.6012 4.0767C62.0605 4.1572 62.5032 4.32528 62.9293 4.58097C63.3602 4.83665 63.7177 5.22254 64.0018 5.73864C64.2859 6.25473 64.4279 6.94602 64.4279 7.8125V15H62.7518V13.5227H62.6665C62.5529 13.7595 62.3635 14.0128 62.0984 14.2827C61.8332 14.5526 61.4805 14.7822 61.0401 14.9716C60.5998 15.161 60.0624 15.2557 59.4279 15.2557ZM59.6836 13.75C60.3465 13.75 60.9052 13.6198 61.3597 13.3594C61.819 13.099 62.1647 12.7628 62.3967 12.3509C62.6334 11.9389 62.7518 11.5057 62.7518 11.0511V9.51705C62.6808 9.60227 62.5245 9.6804 62.283 9.75142C62.0463 9.81771 61.7717 9.87689 61.4592 9.92898C61.1514 9.97633 60.8507 10.0189 60.5572 10.0568C60.2683 10.09 60.034 10.1184 59.854 10.142C59.4184 10.1989 59.0112 10.2912 58.6325 10.419C58.2584 10.5421 57.9554 10.7292 57.7234 10.9801C57.4961 11.2263 57.3825 11.5625 57.3825 11.9886C57.3825 12.571 57.5979 13.0114 58.0288 13.3097C58.4644 13.6032 59.016 13.75 59.6836 13.75ZM72.2315 4.09091V5.51136H66.5781V4.09091H72.2315ZM68.2259 1.47727H69.902V11.875C69.902 12.3485 69.9706 12.7036 70.108 12.9403C70.25 13.1723 70.4299 13.3286 70.6477 13.4091C70.8703 13.4848 71.1046 13.5227 71.3509 13.5227C71.5355 13.5227 71.687 13.5133 71.8054 13.4943C71.9238 13.4706 72.0185 13.4517 72.0895 13.4375L72.4304 14.9432C72.3168 14.9858 72.1581 15.0284 71.9545 15.071C71.7509 15.1184 71.4929 15.142 71.1804 15.142C70.7069 15.142 70.2429 15.0402 69.7884 14.8366C69.3385 14.633 68.9645 14.3229 68.6662 13.9062C68.3726 13.4896 68.2259 12.964 68.2259 12.3295V1.47727ZM79.2095 15.2273C78.1584 15.2273 77.2517 14.9953 76.4893 14.5312C75.7318 14.0625 75.147 13.4091 74.7351 12.571C74.3279 11.7282 74.1243 10.7481 74.1243 9.63068C74.1243 8.51326 74.3279 7.52841 74.7351 6.67614C75.147 5.81913 75.7199 5.15152 76.4538 4.6733C77.1925 4.19034 78.0542 3.94886 79.0391 3.94886C79.6072 3.94886 80.1683 4.04356 80.7223 4.23295C81.2763 4.42235 81.7805 4.73011 82.2351 5.15625C82.6896 5.57765 83.0518 6.13636 83.3217 6.83239C83.5916 7.52841 83.7266 8.38542 83.7266 9.40341V10.1136H75.3175V8.66477H82.022C82.022 8.04924 81.8989 7.5 81.6527 7.01705C81.4112 6.53409 81.0656 6.15294 80.6158 5.87358C80.1707 5.59422 79.6451 5.45455 79.0391 5.45455C78.3714 5.45455 77.7938 5.62026 77.3061 5.9517C76.8232 6.27841 76.4515 6.70455 76.1911 7.23011C75.9306 7.75568 75.8004 8.31913 75.8004 8.92045V9.88636C75.8004 10.7102 75.9425 11.4086 76.2266 11.9815C76.5154 12.5497 76.9155 12.983 77.4268 13.2812C77.9382 13.5748 78.5324 13.7216 79.2095 13.7216C79.6499 13.7216 80.0476 13.66 80.4027 13.5369C80.7625 13.4091 81.0727 13.2197 81.3331 12.9688C81.5935 12.7131 81.7947 12.3958 81.9368 12.017L83.5561 12.4716C83.3857 13.0208 83.0992 13.5038 82.6967 13.9205C82.2943 14.3324 81.7971 14.6544 81.2053 14.8864C80.6134 15.1136 79.9482 15.2273 79.2095 15.2273ZM87.4979 15.1136C87.1475 15.1136 86.8468 14.9882 86.5959 14.7372C86.3449 14.4863 86.2195 14.1856 86.2195 13.8352C86.2195 13.4848 86.3449 13.1842 86.5959 12.9332C86.8468 12.6823 87.1475 12.5568 87.4979 12.5568C87.8482 12.5568 88.1489 12.6823 88.3999 12.9332C88.6508 13.1842 88.7763 13.4848 88.7763 13.8352C88.7763 14.0672 88.7171 14.2803 88.5987 14.4744C88.4851 14.6686 88.3312 14.8248 88.1371 14.9432C87.9477 15.0568 87.7346 15.1136 87.4979 15.1136ZM87.4979 7.01705C87.1475 7.01705 86.8468 6.89157 86.5959 6.64062C86.3449 6.38968 86.2195 6.08902 86.2195 5.73864C86.2195 5.38826 86.3449 5.08759 86.5959 4.83665C86.8468 4.5857 87.1475 4.46023 87.4979 4.46023C87.8482 4.46023 88.1489 4.5857 88.3999 4.83665C88.6508 5.08759 88.7763 5.38826 88.7763 5.73864C88.7763 5.97064 88.7171 6.18371 88.5987 6.37784C88.4851 6.57197 88.3312 6.72822 88.1371 6.84659C87.9477 6.96023 87.7346 7.01705 87.4979 7.01705Z" fill="#2A3647"/>
</svg>
