<svg width="225" height="106" viewBox="0 0 225 106" fill="none" xmlns="http://www.w3.org/2000/svg">
<path d="M18.657 10.8182H25.8004V34.652C25.8004 36.8551 25.3053 38.7689 24.315 40.3935C23.3358 42.018 21.9728 43.2698 20.2259 44.1488C18.4789 45.0278 16.4483 45.4673 14.1339 45.4673C12.0754 45.4673 10.2061 45.1057 8.52592 44.3825C6.85689 43.6481 5.53279 42.5354 4.55362 41.0444C3.57446 39.5423 3.09044 37.6562 3.10156 35.3864H10.2951C10.3174 36.2876 10.5009 37.061 10.8459 37.7063C11.2019 38.3406 11.686 38.8301 12.2979 39.1751C12.921 39.5089 13.6554 39.6758 14.5011 39.6758C15.3912 39.6758 16.1423 39.4866 16.7543 39.1083C17.3774 38.7189 17.8503 38.1514 18.1729 37.4059C18.4956 36.6604 18.657 35.7424 18.657 34.652V10.8182ZM43.2251 45.5007C40.6326 45.5007 38.3905 44.9499 36.4989 43.8484C34.6185 42.7357 33.1664 41.189 32.1428 39.2085C31.1191 37.2167 30.6072 34.9079 30.6072 32.282C30.6072 29.6338 31.1191 27.3194 32.1428 25.3388C33.1664 23.3471 34.6185 21.8004 36.4989 20.6989C38.3905 19.5862 40.6326 19.0298 43.2251 19.0298C45.8177 19.0298 48.0542 19.5862 49.9347 20.6989C51.8262 21.8004 53.2839 23.3471 54.3075 25.3388C55.3312 27.3194 55.843 29.6338 55.843 32.282C55.843 34.9079 55.3312 37.2167 54.3075 39.2085C53.2839 41.189 51.8262 42.7357 49.9347 43.8484C48.0542 44.9499 45.8177 45.5007 43.2251 45.5007ZM43.2585 39.9929C44.438 39.9929 45.4227 39.6591 46.2127 38.9915C47.0027 38.3127 47.598 37.3892 47.9986 36.2209C48.4103 35.0526 48.6161 33.7229 48.6161 32.2319C48.6161 30.7409 48.4103 29.4112 47.9986 28.2429C47.598 27.0746 47.0027 26.151 46.2127 25.4723C45.4227 24.7936 44.438 24.4542 43.2585 24.4542C42.0679 24.4542 41.0665 24.7936 40.2543 25.4723C39.4531 26.151 38.8467 27.0746 38.435 28.2429C38.0344 29.4112 37.8342 30.7409 37.8342 32.2319C37.8342 33.7229 38.0344 35.0526 38.435 36.2209C38.8467 37.3892 39.4531 38.3127 40.2543 38.9915C41.0665 39.6591 42.0679 39.9929 43.2585 39.9929ZM60.4663 45V19.3636H67.5763V45H60.4663ZM64.038 16.0589C62.9809 16.0589 62.0741 15.7085 61.3175 15.0075C60.572 14.2953 60.1992 13.4441 60.1992 12.4538C60.1992 11.4747 60.572 10.6346 61.3175 9.93359C62.0741 9.22147 62.9809 8.86541 64.038 8.86541C65.0951 8.86541 65.9963 9.22147 66.7418 9.93359C67.4985 10.6346 67.8768 11.4747 67.8768 12.4538C67.8768 13.4441 67.4985 14.2953 66.7418 15.0075C65.9963 15.7085 65.0951 16.0589 64.038 16.0589ZM80.382 30.179V45H73.2719V19.3636H80.0482V23.8867H80.3486C80.9161 22.3957 81.8675 21.2163 83.2027 20.3484C84.5379 19.4693 86.1569 19.0298 88.0596 19.0298C89.8399 19.0298 91.3921 19.4193 92.7162 20.1982C94.0403 20.977 95.0695 22.0897 95.8039 23.5362C96.5383 24.9716 96.9055 26.6851 96.9055 28.6768V45H89.7954V29.9453C89.8065 28.3764 89.4059 27.1525 88.5937 26.2734C87.7814 25.3833 86.6631 24.9382 85.2389 24.9382C84.282 24.9382 83.4363 25.1441 82.702 25.5558C81.9787 25.9674 81.4113 26.5683 80.9996 27.3583C80.599 28.1372 80.3931 29.0774 80.382 30.179ZM125.955 45.4673C123.463 45.4673 121.243 45.0389 119.296 44.1822C117.359 43.3143 115.83 42.1237 114.706 40.6104C113.593 39.0861 113.02 37.328 112.987 35.3363H120.264C120.308 36.1708 120.581 36.9052 121.081 37.5394C121.593 38.1625 122.272 38.6465 123.118 38.9915C123.963 39.3364 124.915 39.5089 125.972 39.5089C127.073 39.5089 128.047 39.3142 128.892 38.9247C129.738 38.5353 130.4 37.9956 130.879 37.3058C131.357 36.6159 131.596 35.8203 131.596 34.919C131.596 34.0066 131.34 33.1999 130.829 32.4989C130.328 31.7868 129.605 31.2305 128.659 30.8299C127.724 30.4293 126.611 30.229 125.321 30.229H122.133V24.9215H125.321C126.411 24.9215 127.374 24.7324 128.208 24.354C129.054 23.9757 129.71 23.4528 130.178 22.7852C130.645 22.1064 130.879 21.3164 130.879 20.4151C130.879 19.5584 130.673 18.8073 130.261 18.1619C129.861 17.5054 129.293 16.9936 128.559 16.6264C127.835 16.2592 126.99 16.0756 126.022 16.0756C125.043 16.0756 124.147 16.2537 123.335 16.6097C122.522 16.9547 121.871 17.4498 121.382 18.0952C120.892 18.7405 120.631 19.4972 120.597 20.3651H113.671C113.704 18.3956 114.266 16.6598 115.357 15.1577C116.447 13.6555 117.916 12.4817 119.763 11.636C121.621 10.7792 123.718 10.3509 126.055 10.3509C128.414 10.3509 130.478 10.7792 132.247 11.636C134.016 12.4928 135.391 13.65 136.37 15.1076C137.36 16.5541 137.85 18.1786 137.839 19.9812C137.85 21.895 137.254 23.4917 136.053 24.7713C134.862 26.0509 133.31 26.8632 131.396 27.2081V27.4751C133.911 27.7978 135.825 28.6713 137.138 30.0955C138.462 31.5086 139.118 33.2778 139.107 35.4031C139.118 37.3503 138.556 39.0805 137.421 40.5938C136.297 42.107 134.745 43.2976 132.765 44.1655C130.784 45.0334 128.514 45.4673 125.955 45.4673ZM157.42 45.4673C155.662 45.4562 153.966 45.1613 152.33 44.5827C150.705 44.0041 149.248 43.0639 147.957 41.7621C146.666 40.4602 145.643 38.7356 144.886 36.5881C144.141 34.4406 143.768 31.8035 143.768 28.6768C143.779 25.8061 144.107 23.2414 144.752 20.9826C145.409 18.7127 146.344 16.7878 147.556 15.2077C148.78 13.6277 150.244 12.426 151.946 11.6026C153.648 10.7681 155.557 10.3509 157.671 10.3509C159.952 10.3509 161.966 10.7959 163.713 11.6861C165.46 12.5651 166.862 13.7612 167.919 15.2745C168.987 16.7878 169.632 18.4846 169.855 20.3651H162.728C162.45 19.1745 161.866 18.2398 160.975 17.5611C160.085 16.8823 158.984 16.543 157.671 16.543C155.445 16.543 153.754 17.511 152.597 19.4471C151.451 21.3832 150.867 24.0147 150.844 27.3416H151.078C151.59 26.3291 152.28 25.4667 153.148 24.7546C154.027 24.0314 155.023 23.4806 156.135 23.1023C157.259 22.7128 158.444 22.5181 159.69 22.5181C161.715 22.5181 163.518 22.9966 165.098 23.9535C166.678 24.8993 167.924 26.2011 168.837 27.859C169.749 29.5169 170.205 31.4141 170.205 33.5504C170.205 35.8648 169.666 37.9233 168.586 39.7259C167.518 41.5284 166.022 42.9415 164.097 43.9652C162.183 44.9777 159.957 45.4785 157.42 45.4673ZM157.387 39.7926C158.5 39.7926 159.496 39.5256 160.375 38.9915C161.254 38.4574 161.944 37.7341 162.444 36.8217C162.945 35.9093 163.195 34.8857 163.195 33.7507C163.195 32.6158 162.945 31.5977 162.444 30.6964C161.955 29.7951 161.276 29.0774 160.408 28.5433C159.54 28.0092 158.55 27.7422 157.437 27.7422C156.603 27.7422 155.829 27.898 155.117 28.2095C154.416 28.5211 153.799 28.955 153.265 29.5114C152.742 30.0677 152.33 30.7131 152.029 31.4474C151.729 32.1707 151.579 32.944 151.579 33.7674C151.579 34.869 151.829 35.8759 152.33 36.7884C152.842 37.7008 153.532 38.4296 154.4 38.9748C155.279 39.52 156.274 39.7926 157.387 39.7926ZM188.732 45.7511C185.861 45.7399 183.391 45.0334 181.321 43.6314C179.263 42.2294 177.677 40.1987 176.564 37.5394C175.463 34.8801 174.917 31.6811 174.929 27.9425C174.929 24.215 175.479 21.0382 176.581 18.4123C177.694 15.7863 179.279 13.7891 181.338 12.4205C183.407 11.0407 185.872 10.3509 188.732 10.3509C191.591 10.3509 194.05 11.0407 196.109 12.4205C198.178 13.8002 199.769 15.803 200.882 18.429C201.995 21.0438 202.546 24.215 202.534 27.9425C202.534 31.6922 201.978 34.8968 200.865 37.5561C199.764 40.2154 198.184 42.2461 196.125 43.6481C194.067 45.0501 191.602 45.7511 188.732 45.7511ZM188.732 39.7592C190.69 39.7592 192.253 38.7745 193.422 36.805C194.59 34.8356 195.168 31.8814 195.157 27.9425C195.157 25.3499 194.89 23.1913 194.356 21.4666C193.833 19.7419 193.088 18.4457 192.12 17.5778C191.163 16.7099 190.033 16.2759 188.732 16.2759C186.784 16.2759 185.227 17.2495 184.058 19.1967C182.89 21.1439 182.3 24.0592 182.289 27.9425C182.289 30.5684 182.551 32.7604 183.074 34.5185C183.608 36.2654 184.359 37.5784 185.327 38.4574C186.295 39.3253 187.43 39.7592 188.732 39.7592Z" fill="black"/>
<path d="M3.76136 83V68.4545H5.52273V75.6705H5.69318L12.2273 68.4545H14.5284L8.42045 75.017L14.5284 83H12.3977L7.34091 76.2386L5.52273 78.2841V83H3.76136ZM20.354 83.2273C19.3029 83.2273 18.3962 82.9953 17.6339 82.5312C16.8763 82.0625 16.2915 81.4091 15.8796 80.571C15.4724 79.7282 15.2688 78.7481 15.2688 77.6307C15.2688 76.5133 15.4724 75.5284 15.8796 74.6761C16.2915 73.8191 16.8645 73.1515 17.5984 72.6733C18.337 72.1903 19.1987 71.9489 20.1836 71.9489C20.7518 71.9489 21.3129 72.0436 21.8668 72.233C22.4208 72.4223 22.9251 72.7301 23.3796 73.1562C23.8342 73.5777 24.1964 74.1364 24.4663 74.8324C24.7362 75.5284 24.8711 76.3854 24.8711 77.4034V78.1136H16.462V76.6648H23.1665C23.1665 76.0492 23.0434 75.5 22.7972 75.017C22.5558 74.5341 22.2101 74.1529 21.7603 73.8736C21.3152 73.5942 20.7897 73.4545 20.1836 73.4545C19.516 73.4545 18.9383 73.6203 18.4506 73.9517C17.9677 74.2784 17.596 74.7045 17.3356 75.2301C17.0752 75.7557 16.945 76.3191 16.945 76.9205V77.8864C16.945 78.7102 17.087 79.4086 17.3711 79.9815C17.6599 80.5497 18.06 80.983 18.5714 81.2812C19.0827 81.5748 19.677 81.7216 20.354 81.7216C20.7944 81.7216 21.1921 81.66 21.5472 81.5369C21.9071 81.4091 22.2172 81.2197 22.4776 80.9688C22.738 80.7131 22.9393 80.3958 23.0813 80.017L24.7006 80.4716C24.5302 81.0208 24.2437 81.5038 23.8413 81.9205C23.4388 82.3324 22.9416 82.6544 22.3498 82.8864C21.7579 83.1136 21.0927 83.2273 20.354 83.2273ZM28.1683 87.0909C27.8842 87.0909 27.6309 87.0672 27.4084 87.0199C27.1858 86.9773 27.032 86.9347 26.9467 86.892L27.3729 85.4148C27.7801 85.5189 28.1399 85.5568 28.4524 85.5284C28.7649 85.5 29.0419 85.3603 29.2834 85.1094C29.5296 84.8632 29.7545 84.4631 29.9581 83.9091L30.2706 83.0568L26.2365 72.0909H28.0547L31.0661 80.7841H31.1797L34.1911 72.0909H36.0092L31.3786 84.5909C31.1702 85.1544 30.9122 85.6207 30.6044 85.9901C30.2966 86.3641 29.9392 86.6411 29.532 86.821C29.1295 87.0009 28.675 87.0909 28.1683 87.0909ZM44.0739 68.4545H46.1761L51.1193 80.5284H51.2898L56.233 68.4545H58.3352V83H56.6875V71.9489H56.5455L52 83H50.4091L45.8636 71.9489H45.7216V83H44.0739V68.4545ZM66.2134 83.2273C65.1623 83.2273 64.2556 82.9953 63.4933 82.5312C62.7357 82.0625 62.1509 81.4091 61.739 80.571C61.3318 79.7282 61.1282 78.7481 61.1282 77.6307C61.1282 76.5133 61.3318 75.5284 61.739 74.6761C62.1509 73.8191 62.7238 73.1515 63.4577 72.6733C64.1964 72.1903 65.0581 71.9489 66.043 71.9489C66.6112 71.9489 67.1722 72.0436 67.7262 72.233C68.2802 72.4223 68.7844 72.7301 69.239 73.1562C69.6935 73.5777 70.0558 74.1364 70.3256 74.8324C70.5955 75.5284 70.7305 76.3854 70.7305 77.4034V78.1136H62.3214V76.6648H69.0259C69.0259 76.0492 68.9028 75.5 68.6566 75.017C68.4151 74.5341 68.0695 74.1529 67.6197 73.8736C67.1746 73.5942 66.649 73.4545 66.043 73.4545C65.3754 73.4545 64.7977 73.6203 64.31 73.9517C63.8271 74.2784 63.4554 74.7045 63.195 75.2301C62.9345 75.7557 62.8043 76.3191 62.8043 76.9205V77.8864C62.8043 78.7102 62.9464 79.4086 63.2305 79.9815C63.5193 80.5497 63.9194 80.983 64.4308 81.2812C64.9421 81.5748 65.5363 81.7216 66.2134 81.7216C66.6538 81.7216 67.0515 81.66 67.4066 81.5369C67.7665 81.4091 68.0766 81.2197 68.337 80.9688C68.5974 80.7131 68.7987 80.3958 68.9407 80.017L70.56 80.4716C70.3896 81.0208 70.1031 81.5038 69.7006 81.9205C69.2982 82.3324 68.801 82.6544 68.2092 82.8864C67.6173 83.1136 66.9521 83.2273 66.2134 83.2273ZM78.0245 72.0909V73.5114H72.3711V72.0909H78.0245ZM74.0188 69.4773H75.695V79.875C75.695 80.3485 75.7636 80.7036 75.9009 80.9403C76.043 81.1723 76.2229 81.3286 76.4407 81.4091C76.6632 81.4848 76.8976 81.5227 77.1438 81.5227C77.3285 81.5227 77.48 81.5133 77.5984 81.4943C77.7167 81.4706 77.8114 81.4517 77.8825 81.4375L78.2234 82.9432C78.1097 82.9858 77.9511 83.0284 77.7475 83.071C77.5439 83.1184 77.2859 83.142 76.9734 83.142C76.4999 83.142 76.0359 83.0402 75.5813 82.8366C75.1315 82.633 74.7575 82.3229 74.4592 81.9062C74.1656 81.4896 74.0188 80.964 74.0188 80.3295V69.4773ZM80.5458 83V72.0909H82.1651V73.7386H82.2788C82.4776 73.1989 82.8375 72.7609 83.3583 72.4247C83.8791 72.0885 84.4663 71.9205 85.1197 71.9205C85.2428 71.9205 85.3967 71.9228 85.5813 71.9276C85.766 71.9323 85.9057 71.9394 86.0004 71.9489V73.6534C85.9435 73.6392 85.8133 73.6179 85.6097 73.5895C85.4109 73.5563 85.2002 73.5398 84.9776 73.5398C84.4473 73.5398 83.9738 73.651 83.5572 73.8736C83.1452 74.0914 82.8185 74.3944 82.5771 74.7827C82.3403 75.1662 82.2219 75.6042 82.2219 76.0966V83H80.5458ZM87.9872 83V72.0909H89.6634V83H87.9872ZM88.8395 70.2727C88.5128 70.2727 88.2311 70.1615 87.9943 69.9389C87.7623 69.7164 87.6463 69.4489 87.6463 69.1364C87.6463 68.8239 87.7623 68.5563 87.9943 68.3338C88.2311 68.1113 88.5128 68 88.8395 68C89.1662 68 89.4455 68.1113 89.6776 68.3338C89.9143 68.5563 90.0327 68.8239 90.0327 69.1364C90.0327 69.4489 89.9143 69.7164 89.6776 69.9389C89.4455 70.1615 89.1662 70.2727 88.8395 70.2727ZM97.1651 83.2273C96.1424 83.2273 95.2617 82.9858 94.5231 82.5028C93.7844 82.0199 93.2163 81.3546 92.8185 80.5071C92.4208 79.6596 92.2219 78.6913 92.2219 77.6023C92.2219 76.4943 92.4255 75.5166 92.8327 74.669C93.2447 73.8168 93.8176 73.1515 94.5515 72.6733C95.2901 72.1903 96.1519 71.9489 97.1367 71.9489C97.9038 71.9489 98.5951 72.0909 99.2106 72.375C99.8261 72.6591 100.33 73.0568 100.723 73.5682C101.116 74.0795 101.36 74.6761 101.455 75.358H99.7788C99.6509 74.8608 99.3668 74.4205 98.9265 74.0369C98.4909 73.6487 97.9038 73.4545 97.1651 73.4545C96.5117 73.4545 95.9388 73.625 95.4464 73.9659C94.9587 74.3021 94.5775 74.7779 94.3029 75.3935C94.033 76.0043 93.8981 76.7216 93.8981 77.5455C93.8981 78.3883 94.0307 79.1222 94.2958 79.7472C94.5657 80.3722 94.9445 80.8575 95.4322 81.2031C95.9246 81.5488 96.5022 81.7216 97.1651 81.7216C97.6007 81.7216 97.9961 81.6458 98.3512 81.4943C98.7063 81.3428 99.007 81.125 99.2532 80.8409C99.4994 80.5568 99.6746 80.2159 99.7788 79.8182H101.455C101.36 80.4621 101.126 81.0421 100.752 81.5582C100.382 82.0696 99.8924 82.4768 99.2816 82.7798C98.6755 83.0781 97.9701 83.2273 97.1651 83.2273ZM111.632 74.5341L110.127 74.9602C110.032 74.7093 109.892 74.4654 109.708 74.2287C109.528 73.9872 109.282 73.7884 108.969 73.6321C108.657 73.4759 108.257 73.3977 107.769 73.3977C107.101 73.3977 106.545 73.5516 106.1 73.8594C105.659 74.1624 105.439 74.5483 105.439 75.017C105.439 75.4337 105.591 75.7628 105.894 76.0043C106.197 76.2457 106.67 76.447 107.314 76.608L108.934 77.0057C109.909 77.2424 110.636 77.6046 111.114 78.0923C111.592 78.5753 111.831 79.1979 111.831 79.9602C111.831 80.5852 111.651 81.1439 111.292 81.6364C110.936 82.1288 110.439 82.517 109.8 82.8011C109.161 83.0852 108.417 83.2273 107.57 83.2273C106.457 83.2273 105.536 82.9858 104.807 82.5028C104.078 82.0199 103.616 81.3144 103.422 80.3864L105.013 79.9886C105.165 80.5758 105.451 81.0161 105.873 81.3097C106.299 81.6032 106.855 81.75 107.542 81.75C108.323 81.75 108.943 81.5843 109.402 81.2528C109.866 80.9167 110.098 80.5142 110.098 80.0455C110.098 79.6667 109.966 79.3494 109.701 79.0938C109.435 78.8333 109.028 78.6392 108.479 78.5114L106.661 78.0852C105.662 77.8485 104.928 77.4815 104.459 76.9844C103.995 76.4825 103.763 75.8551 103.763 75.1023C103.763 74.4867 103.936 73.9422 104.282 73.4688C104.632 72.9953 105.108 72.6236 105.709 72.3537C106.315 72.0838 107.002 71.9489 107.769 71.9489C108.848 71.9489 109.696 72.1856 110.311 72.6591C110.932 73.1326 111.372 73.7576 111.632 74.5341ZM123.19 83.2557C122.498 83.2557 121.871 83.1255 121.308 82.8651C120.744 82.5999 120.297 82.2188 119.965 81.7216C119.634 81.2197 119.468 80.6136 119.468 79.9034C119.468 79.2784 119.591 78.7718 119.837 78.3835C120.084 77.9905 120.413 77.6828 120.825 77.4602C121.237 77.2377 121.691 77.072 122.188 76.9631C122.69 76.8494 123.194 76.7595 123.701 76.6932C124.364 76.608 124.901 76.544 125.313 76.5014C125.73 76.4541 126.033 76.3759 126.222 76.267C126.416 76.1581 126.513 75.9687 126.513 75.6989V75.642C126.513 74.9413 126.322 74.3968 125.938 74.0085C125.559 73.6203 124.984 73.4261 124.212 73.4261C123.412 73.4261 122.785 73.6013 122.33 73.9517C121.876 74.3021 121.556 74.6761 121.371 75.0739L119.781 74.5057C120.065 73.8428 120.443 73.3267 120.917 72.9574C121.395 72.5833 121.916 72.3229 122.479 72.1761C123.048 72.0246 123.606 71.9489 124.156 71.9489C124.506 71.9489 124.908 71.9915 125.363 72.0767C125.822 72.1572 126.265 72.3253 126.691 72.581C127.122 72.8366 127.479 73.2225 127.763 73.7386C128.048 74.2547 128.19 74.946 128.19 75.8125V83H126.513V81.5227H126.428C126.315 81.7595 126.125 82.0128 125.86 82.2827C125.595 82.5526 125.242 82.7822 124.802 82.9716C124.362 83.161 123.824 83.2557 123.19 83.2557ZM123.445 81.75C124.108 81.75 124.667 81.6198 125.121 81.3594C125.581 81.099 125.926 80.7628 126.158 80.3509C126.395 79.9389 126.513 79.5057 126.513 79.0511V77.517C126.442 77.6023 126.286 77.6804 126.045 77.7514C125.808 77.8177 125.533 77.8769 125.221 77.929C124.913 77.9763 124.612 78.0189 124.319 78.0568C124.03 78.09 123.796 78.1184 123.616 78.142C123.18 78.1989 122.773 78.2912 122.394 78.419C122.02 78.5421 121.717 78.7292 121.485 78.9801C121.258 79.2263 121.144 79.5625 121.144 79.9886C121.144 80.571 121.36 81.0114 121.79 81.3097C122.226 81.6032 122.778 81.75 123.445 81.75ZM135.993 72.0909V73.5114H130.34V72.0909H135.993ZM131.988 69.4773H133.664V79.875C133.664 80.3485 133.732 80.7036 133.87 80.9403C134.012 81.1723 134.192 81.3286 134.409 81.4091C134.632 81.4848 134.866 81.5227 135.113 81.5227C135.297 81.5227 135.449 81.5133 135.567 81.4943C135.685 81.4706 135.78 81.4517 135.851 81.4375L136.192 82.9432C136.078 82.9858 135.92 83.0284 135.716 83.071C135.513 83.1184 135.255 83.142 134.942 83.142C134.469 83.142 134.005 83.0402 133.55 82.8366C133.1 82.633 132.726 82.3229 132.428 81.9062C132.134 81.4896 131.988 80.964 131.988 80.3295V69.4773ZM147.35 83.2557C146.658 83.2557 146.031 83.1255 145.468 82.8651C144.904 82.5999 144.457 82.2188 144.125 81.7216C143.794 81.2197 143.628 80.6136 143.628 79.9034C143.628 79.2784 143.751 78.7718 143.998 78.3835C144.244 77.9905 144.573 77.6828 144.985 77.4602C145.397 77.2377 145.851 77.072 146.348 76.9631C146.85 76.8494 147.355 76.7595 147.861 76.6932C148.524 76.608 149.061 76.544 149.473 76.5014C149.89 76.4541 150.193 76.3759 150.382 76.267C150.577 76.1581 150.674 75.9687 150.674 75.6989V75.642C150.674 74.9413 150.482 74.3968 150.098 74.0085C149.72 73.6203 149.144 73.4261 148.373 73.4261C147.572 73.4261 146.945 73.6013 146.49 73.9517C146.036 74.3021 145.716 74.6761 145.532 75.0739L143.941 74.5057C144.225 73.8428 144.604 73.3267 145.077 72.9574C145.555 72.5833 146.076 72.3229 146.64 72.1761C147.208 72.0246 147.766 71.9489 148.316 71.9489C148.666 71.9489 149.069 71.9915 149.523 72.0767C149.982 72.1572 150.425 72.3253 150.851 72.581C151.282 72.8366 151.64 73.2225 151.924 73.7386C152.208 74.2547 152.35 74.946 152.35 75.8125V83H150.674V81.5227H150.588C150.475 81.7595 150.285 82.0128 150.02 82.2827C149.755 82.5526 149.402 82.7822 148.962 82.9716C148.522 83.161 147.984 83.2557 147.35 83.2557ZM147.605 81.75C148.268 81.75 148.827 81.6198 149.282 81.3594C149.741 81.099 150.087 80.7628 150.319 80.3509C150.555 79.9389 150.674 79.5057 150.674 79.0511V77.517C150.603 77.6023 150.446 77.6804 150.205 77.7514C149.968 77.8177 149.694 77.8769 149.381 77.929C149.073 77.9763 148.773 78.0189 148.479 78.0568C148.19 78.09 147.956 78.1184 147.776 78.142C147.34 78.1989 146.933 78.2912 146.554 78.419C146.18 78.5421 145.877 78.7292 145.645 78.9801C145.418 79.2263 145.304 79.5625 145.304 79.9886C145.304 80.571 145.52 81.0114 145.951 81.3097C146.386 81.6032 146.938 81.75 147.605 81.75ZM171.205 73C171.048 72.5218 170.842 72.0933 170.587 71.7145C170.336 71.331 170.035 71.0043 169.685 70.7344C169.339 70.4645 168.946 70.2585 168.506 70.1165C168.065 69.9744 167.582 69.9034 167.057 69.9034C166.195 69.9034 165.411 70.1259 164.706 70.571C164 71.0161 163.439 71.6719 163.023 72.5384C162.606 73.4048 162.398 74.4678 162.398 75.7273C162.398 76.9867 162.608 78.0497 163.03 78.9162C163.451 79.7827 164.022 80.4384 164.741 80.8835C165.461 81.3286 166.271 81.5511 167.17 81.5511C168.004 81.5511 168.738 81.3736 169.372 81.0185C170.011 80.6586 170.509 80.152 170.864 79.4986C171.223 78.8404 171.403 78.0663 171.403 77.1761L171.943 77.2898H167.568V75.7273H173.108V77.2898C173.108 78.4877 172.852 79.5294 172.341 80.4148C171.834 81.3002 171.134 81.9867 170.239 82.4744C169.348 82.9574 168.326 83.1989 167.17 83.1989C165.883 83.1989 164.751 82.8958 163.776 82.2898C162.805 81.6837 162.047 80.822 161.503 79.7045C160.963 78.5871 160.693 77.2614 160.693 75.7273C160.693 74.5767 160.847 73.5421 161.155 72.6236C161.467 71.7003 161.908 70.9143 162.476 70.2656C163.044 69.617 163.716 69.1198 164.493 68.7741C165.269 68.4285 166.124 68.2557 167.057 68.2557C167.824 68.2557 168.539 68.3717 169.202 68.6037C169.869 68.831 170.464 69.1553 170.984 69.5767C171.51 69.9934 171.948 70.4929 172.298 71.0753C172.649 71.6529 172.89 72.2945 173.023 73H171.205ZM177.574 68.4545V83H175.897V68.4545H177.574ZM183.854 83.2557C183.162 83.2557 182.535 83.1255 181.972 82.8651C181.408 82.5999 180.961 82.2188 180.629 81.7216C180.298 81.2197 180.132 80.6136 180.132 79.9034C180.132 79.2784 180.255 78.7718 180.501 78.3835C180.748 77.9905 181.077 77.6828 181.489 77.4602C181.901 77.2377 182.355 77.072 182.852 76.9631C183.354 76.8494 183.858 76.7595 184.365 76.6932C185.028 76.608 185.565 76.544 185.977 76.5014C186.394 76.4541 186.697 76.3759 186.886 76.267C187.08 76.1581 187.178 75.9687 187.178 75.6989V75.642C187.178 74.9413 186.986 74.3968 186.602 74.0085C186.223 73.6203 185.648 73.4261 184.876 73.4261C184.076 73.4261 183.449 73.6013 182.994 73.9517C182.54 74.3021 182.22 74.6761 182.036 75.0739L180.445 74.5057C180.729 73.8428 181.107 73.3267 181.581 72.9574C182.059 72.5833 182.58 72.3229 183.143 72.1761C183.712 72.0246 184.27 71.9489 184.82 71.9489C185.17 71.9489 185.572 71.9915 186.027 72.0767C186.486 72.1572 186.929 72.3253 187.355 72.581C187.786 72.8366 188.143 73.2225 188.428 73.7386C188.712 74.2547 188.854 74.946 188.854 75.8125V83H187.178V81.5227H187.092C186.979 81.7595 186.789 82.0128 186.524 82.2827C186.259 82.5526 185.906 82.7822 185.466 82.9716C185.026 83.161 184.488 83.2557 183.854 83.2557ZM184.109 81.75C184.772 81.75 185.331 81.6198 185.786 81.3594C186.245 81.099 186.59 80.7628 186.822 80.3509C187.059 79.9389 187.178 79.5057 187.178 79.0511V77.517C187.107 77.6023 186.95 77.6804 186.709 77.7514C186.472 77.8177 186.197 77.8769 185.885 77.929C185.577 77.9763 185.277 78.0189 184.983 78.0568C184.694 78.09 184.46 78.1184 184.28 78.142C183.844 78.1989 183.437 78.2912 183.058 78.419C182.684 78.5421 182.381 78.7292 182.149 78.9801C181.922 79.2263 181.808 79.5625 181.808 79.9886C181.808 80.571 182.024 81.0114 182.455 81.3097C182.89 81.6032 183.442 81.75 184.109 81.75ZM193.589 76.4375V83H191.913V72.0909H193.532V73.7955H193.674C193.93 73.2415 194.318 72.7964 194.839 72.4602C195.36 72.1193 196.032 71.9489 196.856 71.9489C197.595 71.9489 198.241 72.1004 198.795 72.4034C199.349 72.7017 199.78 73.1562 200.088 73.767C200.395 74.3731 200.549 75.1402 200.549 76.0682V83H198.873V76.1818C198.873 75.3248 198.651 74.6572 198.206 74.179C197.761 73.696 197.15 73.4545 196.373 73.4545C195.838 73.4545 195.36 73.5705 194.939 73.8026C194.522 74.0346 194.193 74.3731 193.951 74.8182C193.71 75.2633 193.589 75.803 193.589 76.4375ZM208.044 83.2273C207.021 83.2273 206.141 82.9858 205.402 82.5028C204.663 82.0199 204.095 81.3546 203.697 80.5071C203.3 79.6596 203.101 78.6913 203.101 77.6023C203.101 76.4943 203.304 75.5166 203.712 74.669C204.124 73.8168 204.696 73.1515 205.43 72.6733C206.169 72.1903 207.031 71.9489 208.016 71.9489C208.783 71.9489 209.474 72.0909 210.089 72.375C210.705 72.6591 211.209 73.0568 211.602 73.5682C211.995 74.0795 212.239 74.6761 212.334 75.358H210.658C210.53 74.8608 210.246 74.4205 209.805 74.0369C209.37 73.6487 208.783 73.4545 208.044 73.4545C207.391 73.4545 206.818 73.625 206.325 73.9659C205.838 74.3021 205.456 74.7779 205.182 75.3935C204.912 76.0043 204.777 76.7216 204.777 77.5455C204.777 78.3883 204.91 79.1222 205.175 79.7472C205.445 80.3722 205.823 80.8575 206.311 81.2031C206.804 81.5488 207.381 81.7216 208.044 81.7216C208.48 81.7216 208.875 81.6458 209.23 81.4943C209.585 81.3428 209.886 81.125 210.132 80.8409C210.378 80.5568 210.554 80.2159 210.658 79.8182H212.334C212.239 80.4621 212.005 81.0421 211.631 81.5582C211.261 82.0696 210.771 82.4768 210.161 82.7798C209.554 83.0781 208.849 83.2273 208.044 83.2273ZM219.358 83.2273C218.307 83.2273 217.4 82.9953 216.638 82.5312C215.88 82.0625 215.295 81.4091 214.884 80.571C214.476 79.7282 214.273 78.7481 214.273 77.6307C214.273 76.5133 214.476 75.5284 214.884 74.6761C215.295 73.8191 215.868 73.1515 216.602 72.6733C217.341 72.1903 218.203 71.9489 219.188 71.9489C219.756 71.9489 220.317 72.0436 220.871 72.233C221.425 72.4223 221.929 72.7301 222.384 73.1562C222.838 73.5777 223.2 74.1364 223.47 74.8324C223.74 75.5284 223.875 76.3854 223.875 77.4034V78.1136H215.466V76.6648H222.17C222.17 76.0492 222.047 75.5 221.801 75.017C221.56 74.5341 221.214 74.1529 220.764 73.8736C220.319 73.5942 219.794 73.4545 219.188 73.4545C218.52 73.4545 217.942 73.6203 217.455 73.9517C216.972 74.2784 216.6 74.7045 216.339 75.2301C216.079 75.7557 215.949 76.3191 215.949 76.9205V77.8864C215.949 78.7102 216.091 79.4086 216.375 79.9815C216.664 80.5497 217.064 80.983 217.575 81.2812C218.087 81.5748 218.681 81.7216 219.358 81.7216C219.798 81.7216 220.196 81.66 220.551 81.5369C220.911 81.4091 221.221 81.2197 221.482 80.9688C221.742 80.7131 221.943 80.3958 222.085 80.017L223.705 80.4716C223.534 81.0208 223.248 81.5038 222.845 81.9205C222.443 82.3324 221.946 82.6544 221.354 82.8864C220.762 83.1136 220.097 83.2273 219.358 83.2273Z" fill="#2A3647"/>
<path d="M92 104H2" stroke="#29ABE2" stroke-width="3" stroke-linecap="round"/>
</svg>
