<svg width="164" height="36" viewBox="0 0 164 36" fill="none" xmlns="http://www.w3.org/2000/svg">
<rect width="164" height="36" rx="8" fill="#0038FF"/>
<path d="M37.0028 9.27273L39.0284 9.27273V20.348C39.0284 21.4915 38.7589 22.5124 38.2198 23.4109C37.6862 24.3039 36.9321 25.009 35.9574 25.5263C34.9827 26.0381 33.8393 26.294 32.527 26.294C31.2147 26.294 30.0713 26.0381 29.0966 25.5263C28.1219 25.009 27.3651 24.3039 26.826 23.4109C26.2924 22.5124 26.0256 21.4915 26.0256 20.348L26.0256 9.27273H28.0511L28.0511 20.1847C28.0511 21.0014 28.2308 21.7283 28.5902 22.3654C28.9496 22.997 29.4614 23.4953 30.1257 23.8601C30.7955 24.2195 31.5959 24.3991 32.527 24.3991C33.4581 24.3991 34.2585 24.2195 34.9283 23.8601C35.598 23.4953 36.1098 22.997 36.4638 22.3654C36.8232 21.7283 37.0028 21.0014 37.0028 20.1847V9.27273ZM51.6984 16.2642L49.9669 16.7543C49.858 16.4657 49.6974 16.1853 49.485 15.913C49.2781 15.6353 48.9949 15.4066 48.6356 15.2269C48.2762 15.0472 47.8161 14.9574 47.2552 14.9574C46.4875 14.9574 45.8477 15.1344 45.3358 15.4883C44.8295 15.8368 44.5763 16.2805 44.5763 16.8196C44.5763 17.2988 44.7505 17.6772 45.099 17.9549C45.4475 18.2326 45.992 18.464 46.7325 18.6491L48.5947 19.1065C49.7164 19.3788 50.5522 19.7953 51.1022 20.3562C51.6521 20.9116 51.9271 21.6276 51.9271 22.5043C51.9271 23.223 51.7202 23.8655 51.3064 24.4318C50.898 24.9981 50.3263 25.4446 49.5912 25.7713C48.8561 26.098 48.0012 26.2614 47.0265 26.2614C45.747 26.2614 44.6879 25.9837 43.8493 25.4283C43.0108 24.8729 42.4799 24.0616 42.2567 22.9943L44.0862 22.5369C44.2604 23.2121 44.5899 23.7185 45.0745 24.0561C45.5645 24.3937 46.2043 24.5625 46.9939 24.5625C47.8923 24.5625 48.6056 24.3719 49.1338 23.9908C49.6674 23.6042 49.9342 23.1413 49.9342 22.6023C49.9342 22.1667 49.7818 21.8018 49.4768 21.5078C49.1719 21.2083 48.7036 20.9851 48.072 20.8381L45.9811 20.348C44.8322 20.0758 43.9882 19.6538 43.4491 19.082C42.9155 18.5049 42.6487 17.7834 42.6487 16.9176C42.6487 16.2098 42.8474 15.5836 43.2449 15.0391C43.6479 14.4946 44.1951 14.0671 44.8866 13.7567C45.5836 13.4464 46.3731 13.2912 47.2552 13.2912C48.4967 13.2912 49.4714 13.5634 50.1792 14.108C50.8925 14.6525 51.3989 15.3712 51.6984 16.2642ZM60.0886 26.2614C58.8798 26.2614 57.8371 25.9946 56.9604 25.4609C56.0892 24.9219 55.4167 24.1705 54.943 23.2067C54.4747 22.2375 54.2406 21.1103 54.2406 19.8253C54.2406 18.5402 54.4747 17.4077 54.943 16.4276C55.4167 15.442 56.0756 14.6742 56.9196 14.1243C57.769 13.5689 58.76 13.2912 59.8926 13.2912C60.546 13.2912 61.1912 13.4001 61.8283 13.6179C62.4654 13.8357 63.0453 14.1896 63.568 14.6797C64.0907 15.1643 64.5073 15.8068 64.8177 16.6072C65.128 17.4077 65.2832 18.3932 65.2832 19.5639V20.3807L55.6127 20.3807V18.7145H63.323C63.323 18.0066 63.1814 17.375 62.8983 16.8196C62.6206 16.2642 62.2231 15.8259 61.7058 15.5046C61.194 15.1834 60.5895 15.0227 59.8926 15.0227C59.1248 15.0227 58.4605 15.2133 57.8997 15.5945C57.3443 15.9702 56.9168 16.4602 56.6174 17.0646C56.3179 17.669 56.1681 18.317 56.1681 19.0085V20.1193C56.1681 21.0668 56.3315 21.8699 56.6582 22.5288C56.9904 23.1822 57.4505 23.6804 58.0385 24.0234C58.6266 24.361 59.31 24.5298 60.0886 24.5298C60.595 24.5298 61.0524 24.459 61.4608 24.3175C61.8746 24.1705 62.2312 23.9527 62.5307 23.6641C62.8302 23.37 63.0616 23.0052 63.225 22.5696L65.0872 23.0923C64.8912 23.724 64.5617 24.2794 64.0989 24.7585C63.6361 25.2322 63.0643 25.6025 62.3837 25.8693C61.7031 26.1307 60.938 26.2614 60.0886 26.2614ZM68.2154 26V13.4545H70.0776V15.3494H70.2083C70.437 14.7287 70.8508 14.225 71.4498 13.8384C72.0487 13.4518 72.7239 13.2585 73.4753 13.2585C73.6169 13.2585 73.7939 13.2612 74.0062 13.2667C74.2186 13.2721 74.3792 13.2803 74.4881 13.2912V15.2514C74.4228 15.2351 74.273 15.2106 74.0389 15.1779C73.8102 15.1398 73.5679 15.1207 73.312 15.1207C72.7021 15.1207 72.1576 15.2487 71.6784 15.5046C71.2047 15.7551 70.829 16.1036 70.5513 16.5501C70.2791 16.9911 70.1429 17.4948 70.1429 18.0611V26H68.2154ZM92.6508 13.4545C92.5528 12.6269 92.1553 11.9844 91.4584 11.527C90.7614 11.0696 89.9065 10.8409 88.8937 10.8409C88.1532 10.8409 87.5052 10.9607 86.9498 11.2003C86.3999 11.4399 85.9697 11.7693 85.6594 12.1886C85.3544 12.6078 85.202 13.0843 85.202 13.6179C85.202 14.0644 85.3082 14.4483 85.5205 14.7695C85.7383 15.0853 86.016 15.3494 86.3536 15.5618C86.6912 15.7687 87.0451 15.9402 87.4154 16.0763C87.7857 16.207 88.126 16.3132 88.4363 16.3949L90.1352 16.8523C90.5708 16.9666 91.0554 17.1245 91.589 17.326C92.1281 17.5275 92.6427 17.8024 93.1327 18.1509C93.6282 18.494 94.0366 18.935 94.3579 19.4741C94.6791 20.0131 94.8398 20.6747 94.8398 21.4588C94.8398 22.3627 94.6029 23.1795 94.1292 23.9091C93.6609 24.6387 92.9748 25.2186 92.0709 25.6488C91.1725 26.079 90.0808 26.294 88.7957 26.294C87.5978 26.294 86.5605 26.1007 85.6839 25.7141C84.8126 25.3275 84.1266 24.7885 83.6256 24.0969C83.1301 23.4054 82.8497 22.6023 82.7844 21.6875H84.8753C84.9297 22.3191 85.1421 22.8419 85.5123 23.2557C85.8881 23.6641 86.3618 23.969 86.9335 24.1705C87.5107 24.3665 88.1314 24.4645 88.7957 24.4645C89.5689 24.4645 90.2632 24.3393 90.8785 24.0888C91.4938 23.8329 91.9811 23.4789 92.3405 23.027C92.6998 22.5696 92.8795 22.036 92.8795 21.4261C92.8795 20.8707 92.7243 20.4188 92.414 20.0703C92.1036 19.7218 91.6952 19.4387 91.1888 19.2209C90.6824 19.0031 90.1352 18.8125 89.5471 18.6491L87.4889 18.0611C86.1821 17.6854 85.1475 17.149 84.3852 16.4521C83.6229 15.7551 83.2417 14.843 83.2417 13.7159C83.2417 12.7794 83.4949 11.9626 84.0013 11.2656C84.5132 10.5632 85.1992 10.0187 86.0596 9.6321C86.9253 9.24006 87.8918 9.04403 88.9591 9.04403C90.0372 9.04403 90.9955 9.23733 91.8341 9.62393C92.6726 10.0051 93.3369 10.5278 93.827 11.1921C94.3225 11.8564 94.5838 12.6106 94.6111 13.4545H92.6508ZM103.365 13.4545V15.0881H96.8633V13.4545H103.365ZM98.7582 10.4489H100.686V22.4063C100.686 22.9508 100.765 23.3591 100.923 23.6314C101.086 23.8982 101.293 24.0779 101.543 24.1705C101.799 24.2576 102.069 24.3011 102.352 24.3011C102.564 24.3011 102.739 24.2902 102.875 24.2685C103.011 24.2412 103.12 24.2195 103.201 24.2031L103.593 25.9347C103.463 25.9837 103.28 26.0327 103.046 26.0817C102.812 26.1361 102.515 26.1634 102.156 26.1634C101.611 26.1634 101.078 26.0463 100.555 25.8121C100.038 25.578 99.6076 25.2214 99.2646 24.7422C98.927 24.263 98.7582 23.6586 98.7582 22.929V10.4489ZM111.226 26.2614C110.093 26.2614 109.1 25.9918 108.245 25.4528C107.395 24.9137 106.731 24.1596 106.252 23.1903C105.778 22.2211 105.541 21.0885 105.541 19.7926C105.541 18.4858 105.778 17.3451 106.252 16.3704C106.731 15.3957 107.395 14.6388 108.245 14.0998C109.1 13.5607 110.093 13.2912 111.226 13.2912C112.359 13.2912 113.35 13.5607 114.199 14.0998C115.054 14.6388 115.718 15.3957 116.192 16.3704C116.671 17.3451 116.911 18.4858 116.911 19.7926C116.911 21.0885 116.671 22.2211 116.192 23.1903C115.718 24.1596 115.054 24.9137 114.199 25.4528C113.35 25.9918 112.359 26.2614 111.226 26.2614ZM111.226 24.5298C112.086 24.5298 112.794 24.3093 113.35 23.8683C113.905 23.4272 114.316 22.8473 114.583 22.1286C114.85 21.4098 114.983 20.6312 114.983 19.7926C114.983 18.9541 114.85 18.1727 114.583 17.4485C114.316 16.7243 113.905 16.139 113.35 15.6925C112.794 15.246 112.086 15.0227 111.226 15.0227C110.366 15.0227 109.658 15.246 109.102 15.6925C108.547 16.139 108.136 16.7243 107.869 17.4485C107.602 18.1727 107.469 18.9541 107.469 19.7926C107.469 20.6312 107.602 21.4098 107.869 22.1286C108.136 22.8473 108.547 23.4272 109.102 23.8683C109.658 24.3093 110.366 24.5298 111.226 24.5298ZM119.853 26V13.4545H121.715V15.3494H121.846C122.075 14.7287 122.488 14.225 123.087 13.8384C123.686 13.4518 124.362 13.2585 125.113 13.2585C125.255 13.2585 125.432 13.2612 125.644 13.2667C125.856 13.2721 126.017 13.2803 126.126 13.2912V15.2514C126.06 15.2351 125.911 15.2106 125.677 15.1779C125.448 15.1398 125.206 15.1207 124.95 15.1207C124.34 15.1207 123.795 15.2487 123.316 15.5046C122.842 15.7551 122.467 16.1036 122.189 16.5501C121.917 16.9911 121.781 17.4948 121.781 18.0611V26H119.853ZM130.034 30.7045C129.707 30.7045 129.416 30.6773 129.16 30.6229C128.904 30.5739 128.727 30.5249 128.629 30.4759L129.119 28.777C129.588 28.8968 130.001 28.9403 130.361 28.9077C130.72 28.875 131.039 28.7144 131.316 28.4258C131.599 28.1426 131.858 27.6825 132.092 27.0455L132.452 26.0653L127.812 13.4545L129.903 13.4545L133.366 23.4517H133.497L136.96 13.4545H139.051L133.726 27.8295C133.486 28.4775 133.189 29.0138 132.835 29.4386C132.482 29.8687 132.07 30.1873 131.602 30.3942C131.139 30.6011 130.617 30.7045 130.034 30.7045Z" fill="white"/>
</svg>
