<svg width="71" height="20" viewBox="0 0 71 20" fill="none" xmlns="http://www.w3.org/2000/svg">
<path d="M0.761364 15V0.454545H5.67614C6.81724 0.454545 7.75 0.660511 8.47443 1.07244C9.2036 1.47964 9.74337 2.03125 10.0938 2.72727C10.4441 3.4233 10.6193 4.19981 10.6193 5.05682C10.6193 5.91383 10.4441 6.69271 10.0938 7.39347C9.74811 8.09422 9.21307 8.65294 8.48864 9.0696C7.7642 9.48153 6.83617 9.6875 5.70455 9.6875H2.18182V8.125H5.64773C6.42898 8.125 7.05634 7.99006 7.52983 7.72017C8.00331 7.45028 8.34659 7.0857 8.55966 6.62642C8.77746 6.16241 8.88636 5.6392 8.88636 5.05682C8.88636 4.47443 8.77746 3.9536 8.55966 3.49432C8.34659 3.03504 8.00095 2.67519 7.52273 2.41477C7.04451 2.14962 6.41004 2.01705 5.61932 2.01705H2.52273V15H0.761364ZM13.2294 15V4.09091H14.8487V5.73864H14.9624C15.1612 5.19886 15.5211 4.76089 16.0419 4.42472C16.5627 4.08854 17.1499 3.92045 17.8033 3.92045C17.9264 3.92045 18.0803 3.92282 18.2649 3.92756C18.4496 3.93229 18.5893 3.93939 18.6839 3.94886V5.65341C18.6271 5.6392 18.4969 5.6179 18.2933 5.58949C18.0945 5.55634 17.8838 5.53977 17.6612 5.53977C17.1309 5.53977 16.6574 5.65104 16.2408 5.87358C15.8288 6.09138 15.5021 6.39441 15.2607 6.78267C15.0239 7.16619 14.9055 7.60417 14.9055 8.09659V15H13.2294ZM20.6708 15V4.09091H22.3469V15H20.6708ZM21.5231 2.27273C21.1964 2.27273 20.9147 2.16146 20.6779 1.93892C20.4459 1.71638 20.3299 1.44886 20.3299 1.13636C20.3299 0.823864 20.4459 0.556345 20.6779 0.333806C20.9147 0.111269 21.1964 0 21.5231 0C21.8498 0 22.1291 0.111269 22.3612 0.333806C22.5979 0.556345 22.7163 0.823864 22.7163 1.13636C22.7163 1.44886 22.5979 1.71638 22.3612 1.93892C22.1291 2.16146 21.8498 2.27273 21.5231 2.27273ZM29.8487 15.2273C28.8639 15.2273 27.9998 14.9929 27.2564 14.5241C26.5178 14.0554 25.9401 13.3996 25.5234 12.5568C25.1115 11.714 24.9055 10.7292 24.9055 9.60227C24.9055 8.46591 25.1115 7.47396 25.5234 6.62642C25.9401 5.77888 26.5178 5.12074 27.2564 4.65199C27.9998 4.18324 28.8639 3.94886 29.8487 3.94886C30.8336 3.94886 31.6953 4.18324 32.4339 4.65199C33.1773 5.12074 33.755 5.77888 34.1669 6.62642C34.5836 7.47396 34.7919 8.46591 34.7919 9.60227C34.7919 10.7292 34.5836 11.714 34.1669 12.5568C33.755 13.3996 33.1773 14.0554 32.4339 14.5241C31.6953 14.9929 30.8336 15.2273 29.8487 15.2273ZM29.8487 13.7216C30.5968 13.7216 31.2124 13.5298 31.6953 13.1463C32.1783 12.7628 32.5357 12.2585 32.7678 11.6335C32.9998 11.0085 33.1158 10.3314 33.1158 9.60227C33.1158 8.87311 32.9998 8.19366 32.7678 7.56392C32.5357 6.93419 32.1783 6.42519 31.6953 6.03693C31.2124 5.64867 30.5968 5.45455 29.8487 5.45455C29.1006 5.45455 28.4851 5.64867 28.0021 6.03693C27.5192 6.42519 27.1617 6.93419 26.9297 7.56392C26.6977 8.19366 26.5817 8.87311 26.5817 9.60227C26.5817 10.3314 26.6977 11.0085 26.9297 11.6335C27.1617 12.2585 27.5192 12.7628 28.0021 13.1463C28.4851 13.5298 29.1006 13.7216 29.8487 13.7216ZM37.3505 15V4.09091H38.9698V5.73864H39.0835C39.2823 5.19886 39.6422 4.76089 40.163 4.42472C40.6838 4.08854 41.271 3.92045 41.9244 3.92045C42.0475 3.92045 42.2013 3.92282 42.386 3.92756C42.5707 3.93229 42.7103 3.93939 42.805 3.94886V5.65341C42.7482 5.6392 42.618 5.6179 42.4144 5.58949C42.2156 5.55634 42.0049 5.53977 41.7823 5.53977C41.252 5.53977 40.7785 5.65104 40.3619 5.87358C39.9499 6.09138 39.6232 6.39441 39.3817 6.78267C39.145 7.16619 39.0266 7.60417 39.0266 8.09659V15H37.3505ZM44.7919 15V4.09091H46.468V15H44.7919ZM45.6442 2.27273C45.3175 2.27273 45.0357 2.16146 44.799 1.93892C44.567 1.71638 44.451 1.44886 44.451 1.13636C44.451 0.823864 44.567 0.556345 44.799 0.333806C45.0357 0.111269 45.3175 0 45.6442 0C45.9709 0 46.2502 0.111269 46.4822 0.333806C46.719 0.556345 46.8374 0.823864 46.8374 1.13636C46.8374 1.44886 46.719 1.71638 46.4822 1.93892C46.2502 2.16146 45.9709 2.27273 45.6442 2.27273ZM54.2823 4.09091V5.51136H48.6289V4.09091H54.2823ZM50.2766 1.47727H51.9528V11.875C51.9528 12.3485 52.0214 12.7036 52.1587 12.9403C52.3008 13.1723 52.4807 13.3286 52.6985 13.4091C52.921 13.4848 53.1554 13.5227 53.4016 13.5227C53.5863 13.5227 53.7378 13.5133 53.8562 13.4943C53.9746 13.4706 54.0692 13.4517 54.1403 13.4375L54.4812 14.9432C54.3675 14.9858 54.2089 15.0284 54.0053 15.071C53.8017 15.1184 53.5437 15.142 53.2312 15.142C52.7577 15.142 52.2937 15.0402 51.8391 14.8366C51.3893 14.633 51.0153 14.3229 50.717 13.9062C50.4234 13.4896 50.2766 12.964 50.2766 12.3295V1.47727ZM57.8832 19.0909C57.5991 19.0909 57.3458 19.0672 57.1232 19.0199C56.9007 18.9773 56.7468 18.9347 56.6616 18.892L57.0877 17.4148C57.4949 17.5189 57.8548 17.5568 58.1673 17.5284C58.4798 17.5 58.7567 17.3603 58.9982 17.1094C59.2444 16.8632 59.4693 16.4631 59.6729 15.9091L59.9854 15.0568L55.9513 4.09091H57.7695L60.7809 12.7841H60.8945L63.9059 4.09091H65.7241L61.0934 16.5909C60.8851 17.1544 60.627 17.6207 60.3192 17.9901C60.0115 18.3641 59.654 18.6411 59.2468 18.821C58.8443 19.0009 58.3898 19.0909 57.8832 19.0909ZM69.158 15.1136C68.8076 15.1136 68.507 14.9882 68.256 14.7372C68.0051 14.4863 67.8796 14.1856 67.8796 13.8352C67.8796 13.4848 68.0051 13.1842 68.256 12.9332C68.507 12.6823 68.8076 12.5568 69.158 12.5568C69.5084 12.5568 69.8091 12.6823 70.06 12.9332C70.311 13.1842 70.4364 13.4848 70.4364 13.8352C70.4364 14.0672 70.3772 14.2803 70.2589 14.4744C70.1452 14.6686 69.9914 14.8248 69.7972 14.9432C69.6078 15.0568 69.3948 15.1136 69.158 15.1136ZM69.158 7.01705C68.8076 7.01705 68.507 6.89157 68.256 6.64062C68.0051 6.38968 67.8796 6.08902 67.8796 5.73864C67.8796 5.38826 68.0051 5.08759 68.256 4.83665C68.507 4.5857 68.8076 4.46023 69.158 4.46023C69.5084 4.46023 69.8091 4.5857 70.06 4.83665C70.311 5.08759 70.4364 5.38826 70.4364 5.73864C70.4364 5.97064 70.3772 6.18371 70.2589 6.37784C70.1452 6.57197 69.9914 6.72822 69.7972 6.84659C69.6078 6.96023 69.3948 7.01705 69.158 7.01705Z" fill="#2A3647"/>
</svg>
